<?xml version="1.0" standalone="no"?>
<!DOCTYPE svg PUBLIC "-//W3C//DTD SVG 20010904//EN"
 "http://www.w3.org/TR/2001/REC-SVG-20010904/DTD/svg10.dtd">
<svg version="1.0" xmlns="http://www.w3.org/2000/svg"
 width="16.000000pt" height="16.000000pt" viewBox="0 0 16.000000 16.000000"
 preserveAspectRatio="xMidYMid meet">
<metadata>
Created by potrace 1.11, written by Peter Selinger 2001-2013
</metadata>
<g transform="translate(0.000000,16.000000) scale(0.002286,-0.002286)"
fill="#000000" stroke="none">
<path d="M2969 5962 c-278 -554 -854 -1700 -1279 -2547 -425 -847 -979 -1951
-1231 -2453 l-459 -912 646 2 646 3 493 980 c270 539 863 1720 1317 2625 453
905 830 1654 836 1665 6 11 50 98 98 194 l86 175 -318 634 c-175 349 -321 635
-324 637 -3 2 -233 -450 -511 -1003z"/>
<path d="M4117 4441 l-316 -629 193 -383 c260 -518 1180 -2352 1184 -2361 2
-4 -619 -9 -1380 -10 l-1383 -3 -252 -502 -253 -503 2520 0 c1386 0 2520 3
2520 6 0 7 -2507 5004 -2514 5012 -2 1 -145 -280 -319 -627z"/>
</g>
</svg>
