
<svg width="33px" height="29px" viewBox="246 273 33 29" version="1.1" xmlns="http://www.w3.org/2000/svg" xmlns:xlink="http://www.w3.org/1999/xlink">
    <!-- Generator: Sketch 41.2 (35397) - http://www.bohemiancoding.com/sketch -->
    <desc>Created with Sketch.</desc>
    <defs></defs>
    <path d="M255.561948,287.399823 C251.879188,286.633361 249.392859,284.090948 249.392859,282.258916 L249.392859,280.464272 L254.178576,280.464272 C254.178576,283.399262 254.776791,285.679956 255.561948,287.399823 Z M275.714304,282.258916 C275.714304,284.090948 273.227975,286.633361 269.545216,287.399823 C270.330372,285.679956 270.928587,283.399262 270.928587,280.464272 L275.714304,280.464272 L275.714304,282.258916 Z M278.107163,279.866057 C278.107163,278.875264 277.303312,278.071413 276.312519,278.071413 L270.928587,278.071413 L270.928587,276.276769 C270.928587,274.631679 269.582604,273.285696 267.937514,273.285696 L257.169649,273.285696 C255.524559,273.285696 254.178576,274.631679 254.178576,276.276769 L254.178576,278.071413 L248.794644,278.071413 C247.803851,278.071413 247,278.875264 247,279.866057 L247,282.258916 C247,285.810815 251.299668,289.736599 257.132261,290.017012 C257.880029,290.970417 258.571715,291.531243 258.908211,291.792962 C259.899004,292.690284 260.160723,293.624995 260.160723,294.821424 C260.160723,296.017853 259.562508,297.214283 257.767864,297.214283 C255.97322,297.214283 254.178576,298.410712 254.178576,300.205356 L254.178576,301.401785 C254.178576,301.738281 254.440295,302 254.776791,302 L270.330372,302 C270.666868,302 270.928587,301.738281 270.928587,301.401785 L270.928587,300.205356 C270.928587,298.410712 269.133943,297.214283 267.339299,297.214283 C265.544655,297.214283 264.94644,296.017853 264.94644,294.821424 C264.94644,293.624995 265.208159,292.690284 266.198952,291.792962 C266.535448,291.531243 267.227134,290.970417 267.974902,290.017012 C273.807495,289.736599 278.107163,285.810815 278.107163,282.258916 L278.107163,279.866057 Z" id="trophy---FontAwesome" stroke="none" fill="#FFFFFF" fill-rule="evenodd"></path>
</svg>
